<?xml version="1.0" encoding="UTF-8" standalone="no"?>
<!-- Created with Inkscape (http://www.inkscape.org/) -->

<svg
   xmlns:dc="http://purl.org/dc/elements/1.1/"
   xmlns:cc="http://creativecommons.org/ns#"
   xmlns:rdf="http://www.w3.org/1999/02/22-rdf-syntax-ns#"
   xmlns:svg="http://www.w3.org/2000/svg"
   xmlns="http://www.w3.org/2000/svg"
   xmlns:sodipodi="http://sodipodi.sourceforge.net/DTD/sodipodi-0.dtd"
   xmlns:inkscape="http://www.inkscape.org/namespaces/inkscape"
   width="49.999996"
   height="49.999996"
   viewBox="0 0 13.229166 13.229166"
   version="1.1"
   id="svg8"
   inkscape:version="0.92.3 (2405546, 2018-03-11)"
   sodipodi:docname="icon-page.svg"
   inkscape:export-filename="/home/solucaocriativa/Development/MENINA-CHARMOSA/site/public/icon-page.png"
   inkscape:export-xdpi="96"
   inkscape:export-ydpi="96">
  <defs
     id="defs2">
    <inkscape:path-effect
       effect="skeletal"
       id="path-effect915"
       is_visible="true"
       pattern="m 15.046594,9.1507846 c 0,-2.76 2.24,-5 5,-5 2.76,0 5,2.24 5,5 0,2.7600004 -2.24,5.0000004 -5,5.0000004 -2.76,0 -5,-2.24 -5,-5.0000004 z"
       copytype="single_stretched"
       prop_scale="0.070527785"
       scale_y_rel="false"
       spacing="0"
       normal_offset="0"
       tang_offset="0"
       prop_units="false"
       vertical_pattern="false"
       fuse_tolerance="0" />
    <inkscape:path-effect
       effect="simplify"
       id="path-effect913"
       is_visible="true"
       steps="1"
       threshold="0.5"
       smooth_angles="360"
       helper_size="0"
       simplify_individual_paths="false"
       simplify_just_coalesce="false"
       simplifyindividualpaths="false"
       simplifyJustCoalesce="false" />
    <inkscape:path-effect
       fuse_tolerance="0"
       vertical_pattern="false"
       prop_units="false"
       tang_offset="0"
       normal_offset="0"
       spacing="0"
       scale_y_rel="false"
       prop_scale="0.1489418"
       copytype="single_stretched"
       pattern="m -0.06485601,32.922066 c 0,-2.76 2.24000001,-5 5.00000001,-5 2.76,0 5,2.24 5,5 0,2.76 -2.24,5 -5,5 -2.76,0 -5.00000001,-2.24 -5.00000001,-5 z"
       is_visible="true"
       id="path-effect881"
       effect="skeletal" />
    <inkscape:path-effect
       only_selected="false"
       apply_with_weight="true"
       apply_no_weight="true"
       helper_size="0"
       steps="2"
       weight="33.333333"
       is_visible="true"
       id="path-effect879"
       effect="bspline" />
    <inkscape:path-effect
       fuse_tolerance="0"
       vertical_pattern="false"
       prop_units="false"
       tang_offset="0"
       normal_offset="0"
       spacing="0"
       scale_y_rel="false"
       prop_scale="0.1489418"
       copytype="single_stretched"
       pattern="m -12.273331,20.641425 c 0,-2.76 2.24,-5 5.0000001,-5 2.76,0 5,2.24 5,5 0,2.760001 -2.24,5.000001 -5,5.000001 -2.7600001,0 -5.0000001,-2.24 -5.0000001,-5.000001 z"
       is_visible="true"
       id="path-effect875"
       effect="skeletal" />
    <inkscape:path-effect
       only_selected="false"
       apply_with_weight="true"
       apply_no_weight="true"
       helper_size="0"
       steps="2"
       weight="33.333333"
       is_visible="true"
       id="path-effect873"
       effect="bspline" />
    <inkscape:path-effect
       effect="skeletal"
       id="path-effect869"
       is_visible="true"
       pattern="m -12.273331,20.641425 c 0,-2.76 2.24,-5 5.0000001,-5 2.76,0 5,2.24 5,5 0,2.760001 -2.24,5.000001 -5,5.000001 -2.7600001,0 -5.0000001,-2.24 -5.0000001,-5.000001 z"
       copytype="single_stretched"
       prop_scale="0.1489418"
       scale_y_rel="false"
       spacing="0"
       normal_offset="0"
       tang_offset="0"
       prop_units="false"
       vertical_pattern="false"
       fuse_tolerance="0" />
    <inkscape:path-effect
       effect="bspline"
       id="path-effect867"
       is_visible="true"
       weight="33.333333"
       steps="2"
       helper_size="0"
       apply_no_weight="true"
       apply_with_weight="true"
       only_selected="false" />
    <inkscape:path-effect
       fuse_tolerance="0"
       vertical_pattern="false"
       prop_units="false"
       tang_offset="0"
       normal_offset="0"
       spacing="0"
       scale_y_rel="false"
       prop_scale="0.1489418"
       copytype="single_stretched"
       pattern="m 10.565011,20.182824 c 0,-2.76 2.24,-5 5,-5 2.76,0 5,2.24 5,5 0,2.760001 -2.24,5.000001 -5,5.000001 -2.76,0 -5,-2.24 -5,-5.000001 z"
       is_visible="true"
       id="path-effect863"
       effect="skeletal" />
    <inkscape:path-effect
       only_selected="false"
       apply_with_weight="true"
       apply_no_weight="true"
       helper_size="0"
       steps="2"
       weight="33.333333"
       is_visible="true"
       id="path-effect861"
       effect="bspline" />
    <inkscape:path-effect
       effect="skeletal"
       id="path-effect857"
       is_visible="true"
       pattern="m -0.06485601,8.8913606 c 0,-2.76 2.24000001,-5 5.00000001,-5 2.76,0 5,2.24 5,5 0,2.7600004 -2.24,5.0000004 -5,5.0000004 -2.76,0 -5.00000001,-2.24 -5.00000001,-5.0000004 z"
       copytype="single_stretched"
       prop_scale="0.1489418"
       scale_y_rel="false"
       spacing="0"
       normal_offset="0"
       tang_offset="0"
       prop_units="false"
       vertical_pattern="false"
       fuse_tolerance="0" />
    <inkscape:path-effect
       effect="bspline"
       id="path-effect855"
       is_visible="true"
       weight="33.333333"
       steps="2"
       helper_size="0"
       apply_no_weight="true"
       apply_with_weight="true"
       only_selected="false" />
    <inkscape:path-effect
       effect="skeletal"
       id="path-effect851"
       is_visible="true"
       pattern="M 0,5 C 0,2.24 2.24,0 5,0 7.76,0 10,2.24 10,5 10,7.76 7.76,10 5,10 2.24,10 0,7.76 0,5 Z"
       copytype="single_stretched"
       prop_scale="0.26458333"
       scale_y_rel="false"
       spacing="0"
       normal_offset="0"
       tang_offset="0"
       prop_units="false"
       vertical_pattern="false"
       fuse_tolerance="0" />
    <inkscape:path-effect
       effect="bspline"
       id="path-effect849"
       is_visible="true"
       weight="33.333333"
       steps="2"
       helper_size="0"
       apply_no_weight="true"
       apply_with_weight="true"
       only_selected="false" />
    <inkscape:path-effect
       effect="simplify"
       id="path-effect847"
       is_visible="true"
       steps="1"
       threshold="0.5"
       smooth_angles="360"
       helper_size="0"
       simplify_individual_paths="false"
       simplify_just_coalesce="false"
       simplifyindividualpaths="false"
       simplifyJustCoalesce="false" />
  </defs>
  <sodipodi:namedview
     id="base"
     pagecolor="#ffffff"
     bordercolor="#666666"
     borderopacity="1.0"
     inkscape:pageopacity="0.0"
     inkscape:pageshadow="2"
     inkscape:zoom="8.1590999"
     inkscape:cx="23.217055"
     inkscape:cy="25.02791"
     inkscape:document-units="px"
     inkscape:current-layer="layer2"
     showgrid="false"
     inkscape:window-width="1366"
     inkscape:window-height="690"
     inkscape:window-x="0"
     inkscape:window-y="25"
     inkscape:window-maximized="1"
     showborder="true"
     inkscape:object-paths="true"
     inkscape:snap-intersection-paths="true"
     inkscape:snap-global="true"
     showguides="false"
     fit-margin-top="0"
     fit-margin-left="0"
     fit-margin-right="0"
     fit-margin-bottom="0"
     inkscape:snap-page="true"
     units="px" />
  <metadata
     id="metadata5">
    <rdf:RDF>
      <cc:Work
         rdf:about="">
        <dc:format>image/svg+xml</dc:format>
        <dc:type
           rdf:resource="http://purl.org/dc/dcmitype/StillImage" />
        <dc:title></dc:title>
      </cc:Work>
    </rdf:RDF>
  </metadata>
  <g
     inkscape:groupmode="layer"
     id="layer2"
     inkscape:label="logo"
     style="opacity:1"
     transform="translate(-160.4673,-95.18642)">
    <circle
       style="opacity:1;fill:#ffffff;fill-opacity:1;stroke:none;stroke-width:5.46031189;stroke-linecap:round;stroke-linejoin:round;stroke-miterlimit:4;stroke-dasharray:none;stroke-opacity:1"
       id="path831"
       cx="167.08188"
       cy="101.801"
       r="6.5299811" />
    <path
       inkscape:connector-curvature="0"
       id="path1110"
       d="m 164.12119,99.579967 -1.44445,1.083373 -1.55925,1.16939 v 0.0321 a 1.157779,1.157779 0 0 0 0.009,0.0769 1.157779,1.157779 0 0 0 0.0254,0.113 1.157779,1.157779 0 0 0 0.0365,0.10987 1.157779,1.157779 0 0 0 0.0472,0.10563 1.157779,1.157779 0 0 0 0.0576,0.10037 1.157779,1.157779 0 0 0 0.0674,0.0941 1.157779,1.157779 0 0 0 0.0764,0.0869 1.157779,1.157779 0 0 0 0.0848,0.0789 1.157779,1.157779 0 0 0 0.0921,0.0701 1.157779,1.157779 0 0 0 0.0986,0.0605 1.157779,1.157779 0 0 0 0.10425,0.0504 1.157779,1.157779 0 0 0 0.10875,0.0397 1.157779,1.157779 0 0 0 0.11212,0.0286 1.157779,1.157779 0 0 0 0.1145,0.0174 1.157779,1.157779 0 0 0 0.11563,0.006 1.157779,1.157779 0 0 0 0.0819,-0.002 1.157779,1.157779 0 0 0 0.11488,-0.0139 1.157779,1.157779 0 0 0 0.113,-0.0254 1.157779,1.157779 0 0 0 0.10975,-0.0365 1.157779,1.157779 0 0 0 0.10562,-0.0473 1.157779,1.157779 0 0 0 0.10038,-0.0576 1.157779,1.157779 0 0 0 0.0769,-0.0549 l 0.0219,-0.0165 1.12907,-0.8468 2.96141,2.22104 2.96142,-2.22104 1.09052,0.81785 0.12855,0.0965 a 1.157779,1.157779 0 0 0 0.0746,0.0457 1.157779,1.157779 0 0 0 0.10425,0.0504 1.157779,1.157779 0 0 0 0.10875,0.0397 1.157779,1.157779 0 0 0 0.11212,0.0286 1.157779,1.157779 0 0 0 0.1145,0.0174 1.157779,1.157779 0 0 0 0.11563,0.006 1.157779,1.157779 0 0 0 0.0819,-0.002 1.157779,1.157779 0 0 0 0.11488,-0.0139 1.157779,1.157779 0 0 0 0.113,-0.0254 1.157779,1.157779 0 0 0 0.10975,-0.0365 1.157779,1.157779 0 0 0 0.10562,-0.0473 1.157779,1.157779 0 0 0 0.10038,-0.0576 1.157779,1.157779 0 0 0 0.0941,-0.0673 1.157779,1.157779 0 0 0 0.087,-0.0764 1.157779,1.157779 0 0 0 0.0789,-0.0847 1.157779,1.157779 0 0 0 0.07,-0.0921 1.157779,1.157779 0 0 0 0.0605,-0.0986 1.157779,1.157779 0 0 0 0.0504,-0.10425 1.157779,1.157779 0 0 0 0.0397,-0.10875 1.157779,1.157779 0 0 0 0.0286,-0.11212 1.157779,1.157779 0 0 0 0.0172,-0.11438 1.157779,1.157779 0 0 0 0.001,-0.029 l -1.56,-1.17001 -1.44225,-1.081661 -2.96142,2.221041 z"
       style="opacity:1;fill:#800080;fill-opacity:1;stroke:none;stroke-width:0.48540542;stroke-linecap:round;stroke-linejoin:round;stroke-miterlimit:4;stroke-dasharray:none;stroke-opacity:1" />
  </g>
</svg>
