<?xml version="1.0" encoding="UTF-8" standalone="no"?>
<!-- Created with Inkscape (http://www.inkscape.org/) -->

<svg
   xmlns:dc="http://purl.org/dc/elements/1.1/"
   xmlns:cc="http://creativecommons.org/ns#"
   xmlns:rdf="http://www.w3.org/1999/02/22-rdf-syntax-ns#"
   xmlns:svg="http://www.w3.org/2000/svg"
   xmlns="http://www.w3.org/2000/svg"
   xmlns:sodipodi="http://sodipodi.sourceforge.net/DTD/sodipodi-0.dtd"
   xmlns:inkscape="http://www.inkscape.org/namespaces/inkscape"
   width="190.32375mm"
   height="190.32375mm"
   viewBox="0 0 190.32375 190.32375"
   version="1.1"
   id="svg8"
   inkscape:version="0.92.3 (2405546, 2018-03-11)"
   sodipodi:docname="logo.svg.2020_04_14_10_44_34.0.svg">
  <defs
     id="defs2">
    <inkscape:path-effect
       effect="skeletal"
       id="path-effect915"
       is_visible="true"
       pattern="m 15.046594,9.1507846 c 0,-2.76 2.24,-5 5,-5 2.76,0 5,2.24 5,5 0,2.7600004 -2.24,5.0000004 -5,5.0000004 -2.76,0 -5,-2.24 -5,-5.0000004 z"
       copytype="single_stretched"
       prop_scale="0.070527785"
       scale_y_rel="false"
       spacing="0"
       normal_offset="0"
       tang_offset="0"
       prop_units="false"
       vertical_pattern="false"
       fuse_tolerance="0" />
    <inkscape:path-effect
       effect="simplify"
       id="path-effect913"
       is_visible="true"
       steps="1"
       threshold="0.5"
       smooth_angles="360"
       helper_size="0"
       simplify_individual_paths="false"
       simplify_just_coalesce="false"
       simplifyindividualpaths="false"
       simplifyJustCoalesce="false" />
    <inkscape:path-effect
       fuse_tolerance="0"
       vertical_pattern="false"
       prop_units="false"
       tang_offset="0"
       normal_offset="0"
       spacing="0"
       scale_y_rel="false"
       prop_scale="0.1489418"
       copytype="single_stretched"
       pattern="m -0.06485601,32.922066 c 0,-2.76 2.24000001,-5 5.00000001,-5 2.76,0 5,2.24 5,5 0,2.76 -2.24,5 -5,5 -2.76,0 -5.00000001,-2.24 -5.00000001,-5 z"
       is_visible="true"
       id="path-effect881"
       effect="skeletal" />
    <inkscape:path-effect
       only_selected="false"
       apply_with_weight="true"
       apply_no_weight="true"
       helper_size="0"
       steps="2"
       weight="33.333333"
       is_visible="true"
       id="path-effect879"
       effect="bspline" />
    <inkscape:path-effect
       fuse_tolerance="0"
       vertical_pattern="false"
       prop_units="false"
       tang_offset="0"
       normal_offset="0"
       spacing="0"
       scale_y_rel="false"
       prop_scale="0.1489418"
       copytype="single_stretched"
       pattern="m -12.273331,20.641425 c 0,-2.76 2.24,-5 5.0000001,-5 2.76,0 5,2.24 5,5 0,2.760001 -2.24,5.000001 -5,5.000001 -2.7600001,0 -5.0000001,-2.24 -5.0000001,-5.000001 z"
       is_visible="true"
       id="path-effect875"
       effect="skeletal" />
    <inkscape:path-effect
       only_selected="false"
       apply_with_weight="true"
       apply_no_weight="true"
       helper_size="0"
       steps="2"
       weight="33.333333"
       is_visible="true"
       id="path-effect873"
       effect="bspline" />
    <inkscape:path-effect
       effect="skeletal"
       id="path-effect869"
       is_visible="true"
       pattern="m -12.273331,20.641425 c 0,-2.76 2.24,-5 5.0000001,-5 2.76,0 5,2.24 5,5 0,2.760001 -2.24,5.000001 -5,5.000001 -2.7600001,0 -5.0000001,-2.24 -5.0000001,-5.000001 z"
       copytype="single_stretched"
       prop_scale="0.1489418"
       scale_y_rel="false"
       spacing="0"
       normal_offset="0"
       tang_offset="0"
       prop_units="false"
       vertical_pattern="false"
       fuse_tolerance="0" />
    <inkscape:path-effect
       effect="bspline"
       id="path-effect867"
       is_visible="true"
       weight="33.333333"
       steps="2"
       helper_size="0"
       apply_no_weight="true"
       apply_with_weight="true"
       only_selected="false" />
    <inkscape:path-effect
       fuse_tolerance="0"
       vertical_pattern="false"
       prop_units="false"
       tang_offset="0"
       normal_offset="0"
       spacing="0"
       scale_y_rel="false"
       prop_scale="0.1489418"
       copytype="single_stretched"
       pattern="m 10.565011,20.182824 c 0,-2.76 2.24,-5 5,-5 2.76,0 5,2.24 5,5 0,2.760001 -2.24,5.000001 -5,5.000001 -2.76,0 -5,-2.24 -5,-5.000001 z"
       is_visible="true"
       id="path-effect863"
       effect="skeletal" />
    <inkscape:path-effect
       only_selected="false"
       apply_with_weight="true"
       apply_no_weight="true"
       helper_size="0"
       steps="2"
       weight="33.333333"
       is_visible="true"
       id="path-effect861"
       effect="bspline" />
    <inkscape:path-effect
       effect="skeletal"
       id="path-effect857"
       is_visible="true"
       pattern="m -0.06485601,8.8913606 c 0,-2.76 2.24000001,-5 5.00000001,-5 2.76,0 5,2.24 5,5 0,2.7600004 -2.24,5.0000004 -5,5.0000004 -2.76,0 -5.00000001,-2.24 -5.00000001,-5.0000004 z"
       copytype="single_stretched"
       prop_scale="0.1489418"
       scale_y_rel="false"
       spacing="0"
       normal_offset="0"
       tang_offset="0"
       prop_units="false"
       vertical_pattern="false"
       fuse_tolerance="0" />
    <inkscape:path-effect
       effect="bspline"
       id="path-effect855"
       is_visible="true"
       weight="33.333333"
       steps="2"
       helper_size="0"
       apply_no_weight="true"
       apply_with_weight="true"
       only_selected="false" />
    <inkscape:path-effect
       effect="skeletal"
       id="path-effect851"
       is_visible="true"
       pattern="M 0,5 C 0,2.24 2.24,0 5,0 7.76,0 10,2.24 10,5 10,7.76 7.76,10 5,10 2.24,10 0,7.76 0,5 Z"
       copytype="single_stretched"
       prop_scale="0.26458333"
       scale_y_rel="false"
       spacing="0"
       normal_offset="0"
       tang_offset="0"
       prop_units="false"
       vertical_pattern="false"
       fuse_tolerance="0" />
    <inkscape:path-effect
       effect="bspline"
       id="path-effect849"
       is_visible="true"
       weight="33.333333"
       steps="2"
       helper_size="0"
       apply_no_weight="true"
       apply_with_weight="true"
       only_selected="false" />
    <inkscape:path-effect
       effect="simplify"
       id="path-effect847"
       is_visible="true"
       steps="1"
       threshold="0.5"
       smooth_angles="360"
       helper_size="0"
       simplify_individual_paths="false"
       simplify_just_coalesce="false"
       simplifyindividualpaths="false"
       simplifyJustCoalesce="false" />
  </defs>
  <sodipodi:namedview
     id="base"
     pagecolor="#ffffff"
     bordercolor="#666666"
     borderopacity="1.0"
     inkscape:pageopacity="0.0"
     inkscape:pageshadow="2"
     inkscape:zoom="0.09014617"
     inkscape:cx="-616.38349"
     inkscape:cy="-1011.9934"
     inkscape:document-units="mm"
     inkscape:current-layer="layer2"
     showgrid="false"
     inkscape:window-width="1280"
     inkscape:window-height="716"
     inkscape:window-x="0"
     inkscape:window-y="25"
     inkscape:window-maximized="1"
     showborder="true"
     inkscape:object-paths="true"
     inkscape:snap-intersection-paths="true"
     inkscape:snap-global="false"
     showguides="false"
     fit-margin-top="0"
     fit-margin-left="0"
     fit-margin-right="0"
     fit-margin-bottom="0" />
  <metadata
     id="metadata5">
    <rdf:RDF>
      <cc:Work
         rdf:about="">
        <dc:format>image/svg+xml</dc:format>
        <dc:type
           rdf:resource="http://purl.org/dc/dcmitype/StillImage" />
        <dc:title />
      </cc:Work>
    </rdf:RDF>
  </metadata>
  <g
     inkscape:groupmode="layer"
     id="layer2"
     inkscape:label="logo"
     style="opacity:1"
     transform="translate(193.53613,13.329194)">
    <g
       id="g1117"
       transform="translate(2.5942468,8.5124466)">
      <path
         inkscape:connector-curvature="0"
         id="path1033"
         d="m -125.17557,36.174143 -11.81013,8.857855 -12.74858,9.561174 v 0.262515 a 9.4661806,9.4661806 0 0 0 0.0765,0.6289 9.4661806,9.4661806 0 0 0 0.20722,0.92346 9.4661806,9.4661806 0 0 0 0.29818,0.89814 9.4661806,9.4661806 0 0 0 0.38654,0.86351 9.4661806,9.4661806 0 0 0 0.47077,0.82062 9.4661806,9.4661806 0 0 0 0.55035,0.76998 9.4661806,9.4661806 0 0 0 0.62477,0.71055 9.4661806,9.4661806 0 0 0 0.69247,0.64493 9.4661806,9.4661806 0 0 0 0.75292,0.57309 9.4661806,9.4661806 0 0 0 0.80667,0.49454 9.4661806,9.4661806 0 0 0 0.85214,0.41134 9.4661806,9.4661806 0 0 0 0.88884,0.32453 9.4661806,9.4661806 0 0 0 0.91674,0.2341 9.4661806,9.4661806 0 0 0 0.93586,0.14159 9.4661806,9.4661806 0 0 0 0.94516,0.047 9.4661806,9.4661806 0 0 0 0.66921,-0.0238 9.4661806,9.4661806 0 0 0 0.93948,-0.11369 9.4661806,9.4661806 0 0 0 0.92346,-0.20722 9.4661806,9.4661806 0 0 0 0.89762,-0.29869 9.4661806,9.4661806 0 0 0 0.86403,-0.38654 9.4661806,9.4661806 0 0 0 0.82062,-0.47077 9.4661806,9.4661806 0 0 0 0.62838,-0.44907 l 0.17932,-0.13488 9.23148,-6.923605 24.21299,18.159615 24.212989,-18.159615 8.91626,6.686935 1.05109,0.78858 a 9.4661806,9.4661806 0 0 0 0.6103,0.37414 9.4661806,9.4661806 0 0 0 0.85215,0.41134 9.4661806,9.4661806 0 0 0 0.88883,0.32453 9.4661806,9.4661806 0 0 0 0.91674,0.23409 9.4661806,9.4661806 0 0 0 0.93586,0.1416 9.4661806,9.4661806 0 0 0 0.94516,0.047 9.4661806,9.4661806 0 0 0 0.66921,-0.0238 9.4661806,9.4661806 0 0 0 0.93948,-0.11369 9.4661806,9.4661806 0 0 0 0.92346,-0.20722 9.4661806,9.4661806 0 0 0 0.89762,-0.29869 9.4661806,9.4661806 0 0 0 0.86403,-0.38654 9.4661806,9.4661806 0 0 0 0.82062,-0.47078 9.4661806,9.4661806 0 0 0 0.76946,-0.55035 9.4661806,9.4661806 0 0 0 0.71107,-0.62425 9.4661806,9.4661806 0 0 0 0.64492,-0.69247 9.4661806,9.4661806 0 0 0 0.57258,-0.75344 9.4661806,9.4661806 0 0 0 0.49454,-0.80667 9.4661806,9.4661806 0 0 0 0.41186,-0.85214 9.4661806,9.4661806 0 0 0 0.32453,-0.88884 9.4661806,9.4661806 0 0 0 0.23409,-0.91673 9.4661806,9.4661806 0 0 0 0.14108,-0.93535 9.4661806,9.4661806 0 0 0 0.0119,-0.236677 l -12.75477,-9.566233 -11.79205,-8.843904 -24.212989,18.159613 z"
         style="opacity:1;fill:#ff00ff;fill-opacity:1;stroke:none;stroke-width:0.52916664;stroke-linecap:round;stroke-linejoin:round;stroke-miterlimit:4;stroke-dasharray:none;stroke-opacity:1" />
      <text
         id="text923"
         y="110.2443"
         x="-110.01153"
         style="font-style:normal;font-variant:normal;font-weight:normal;font-stretch:normal;font-size:17.07829857px;line-height:1.25;font-family:'URW Gothic L';-inkscape-font-specification:'URW Gothic L, Normal';font-variant-ligatures:normal;font-variant-caps:normal;font-variant-numeric:normal;font-feature-settings:normal;text-align:start;letter-spacing:0px;word-spacing:0px;writing-mode:lr-tb;text-anchor:start;fill:#1a1a1a;fill-opacity:1;stroke:none;stroke-width:0.42695385"
         xml:space="preserve"><tspan
           style="font-style:normal;font-variant:normal;font-weight:normal;font-stretch:normal;font-size:17.07829857px;font-family:'URW Gothic L';-inkscape-font-specification:'URW Gothic L, Normal';font-variant-ligatures:normal;font-variant-caps:normal;font-variant-numeric:normal;font-feature-settings:normal;text-align:start;writing-mode:lr-tb;text-anchor:start;fill:#1a1a1a;stroke-width:0.42695385"
           y="110.2443"
           x="-110.01153"
           id="tspan921"
           sodipodi:role="line">Charmosa</tspan></text>
      <text
         xml:space="preserve"
         style="font-style:normal;font-variant:normal;font-weight:600;font-stretch:normal;font-size:17.07850838px;line-height:1.25;font-family:'URW Gothic L';-inkscape-font-specification:'URW Gothic L, Semi-Bold';font-variant-ligatures:normal;font-variant-caps:normal;font-variant-numeric:normal;font-feature-settings:normal;text-align:start;letter-spacing:0px;word-spacing:0px;writing-mode:lr-tb;text-anchor:start;fill:#800080;fill-opacity:1;stroke:none;stroke-width:0.42695385"
         x="-178.59306"
         y="110.2443"
         id="text932"><tspan
           sodipodi:role="line"
           id="tspan930"
           x="-178.59306"
           y="110.2443"
           style="font-style:normal;font-variant:normal;font-weight:600;font-stretch:normal;font-size:17.07850838px;font-family:'URW Gothic L';-inkscape-font-specification:'URW Gothic L, Semi-Bold';font-variant-ligatures:normal;font-variant-caps:normal;font-variant-numeric:normal;font-feature-settings:normal;text-align:start;writing-mode:lr-tb;text-anchor:start;fill:#800080;stroke-width:0.42695385">Menina</tspan></text>
    </g>
  </g>
</svg>
